<?xml version="1.0" standalone="no"?>
<svg xmlns="http://www.w3.org/2000/svg" viewBox="0 0 201 73" width="201" height="73"><g fill="#9791e2" color="#9791e2" transform="translate(78.404 0) scale(0.8461539) "><svg width="52.0" height="48.0" x="0.0" y="0.0" viewBox="0 0 52 48"><path fill="currentColor" fill-rule="nonzero" d="M25.7 11.69c-7.36.16-11.83 5.78-11.96 12.72 0 .05.01.1.01.15-.01.18-.01.37.05.57.72 2.75 1.29 5.27 3.12 7.52 2.05 2.51 5.63 3.91 8.81 3.36 3.05-.52 6.38-1.96 8.74-4 2.57-2.22 3.46-5.06 3.64-8.37.37-6.69-6.06-12.09-12.41-11.95zm-.07 20.98c-5.53 1.38-7.5-4.13-8.58-8.22v-.04c.1-5.03 2.45-8.04 7.4-9.23 5.26-1.27 10.27 3.3 10.33 8.46.06 5.29-4.57 7.89-9.15 9.03zM24.18 6.71c-.27-1.51-.15-3.06-.42-4.57-.16-.89.23-1.78 1.16-2.04.81-.22 1.88.27 2.04 1.16.27 1.51.15 3.06.42 4.57.16.89-.23 1.78-1.16 2.04-.81.22-1.88-.27-2.04-1.16zm15.32 5.71c-.72.55-1.86.11-2.28-.6-.5-.85-.12-1.72.6-2.27.98-.74 1.84-1.64 2.71-2.51 1.52-1.52 3.87.83 2.35 2.35-1.07 1.08-2.17 2.11-3.38 3.03zm10.11 9.78c2.11.21 2.13 3.53 0 3.32-2.23-.21-4.42.24-6.65.28-2.14.04-2.14-3.28 0-3.32 2.23-.04 4.42-.5 6.65-.28zM40.1 35.76c.58 1.23 1.82 2.21 2.93 3.12.7.58.6 1.75 0 2.35-.68.68-1.66.58-2.35 0-1.28-1.07-2.72-2.27-3.45-3.8-.39-.81-.23-1.78.6-2.27.73-.43 1.88-.22 2.27.6zM26.69 41.7c.27 1.38.43 2.78.69 4.16.17.88-.24 1.79-1.16 2.04-.82.23-1.87-.27-2.04-1.16-.26-1.38-.42-2.78-.69-4.16-.17-.88.24-1.79 1.16-2.04.82-.23 1.87.27 2.04 1.16zm-14.35-5.56c.76-.51 1.84-.15 2.27.6.47.81.15 1.77-.6 2.27-1.07.72-2.34 1.48-3 2.59-1.09 1.84-3.97.17-2.87-1.68.98-1.65 2.64-2.74 4.2-3.78zM9.02 23.58c0 .97-.76 1.58-1.66 1.66-1.71.17-3.4.52-5.12.42-2.13-.12-2.14-3.45 0-3.32 1.72.1 3.41-.26 5.12-.42.9-.09 1.66.82 1.66 1.66zM8.05 9.92c-1.86-1.06-.19-3.93 1.68-2.86 1.46.83 2.72 2.16 4.31 2.74.85.31 1.42 1.11 1.16 2.04-.22.82-1.19 1.47-2.04 1.16-1.92-.71-3.36-2.08-5.11-3.08z"></path></svg></g><path fill="#1e197c" fill-rule="nonzero" d="M0.24 1.20L14.40 1.20L14.64 7.22L14.18 7.22Q13.13 4.03 12.31 2.87Q11.50 1.70 9.96 1.70L9.96 1.70L9.67 1.70L9.67 17.50L11.71 17.50L11.71 18L2.95 18L2.95 17.50L4.99 17.50L4.99 1.70L4.68 1.70Q3.14 1.70 2.30 2.92Q1.46 4.13 0.46 7.22L0.46 7.22L0 7.22L0.24 1.20ZM20.64 18.24Q17.54 18.24 16.00 16.64Q14.45 15.05 14.45 12.20Q14.45 9.36 16.19 7.85Q17.93 6.34 20.62 6.34L20.62 6.34Q26.06 6.34 25.85 11.81L25.85 11.81L19.08 11.81L19.08 12.74Q19.08 15.10 19.68 16.30Q20.28 17.50 21.77 17.50L21.77 17.50Q24.55 17.50 25.42 14.52L25.42 14.52L25.85 14.59Q25.39 16.32 24.20 17.28Q23.02 18.24 20.64 18.24L20.64 18.24ZM19.10 10.15L19.10 11.33L21.58 11.33L21.58 10.15Q21.58 8.21 21.35 7.50Q21.12 6.79 20.44 6.79Q19.75 6.79 19.43 7.55Q19.10 8.30 19.10 10.15L19.10 10.15ZM32.47 12.36L32.47 12.36L33.17 12.36L33.17 10.51Q33.17 8.23 32.92 7.45Q32.66 6.67 31.94 6.67L31.94 6.67Q31.51 6.67 31.16 6.90Q30.82 7.13 30.82 7.52Q30.82 7.92 30.96 8.33L30.96 8.33L31.56 8.33Q31.75 8.83 31.75 9.54Q31.75 10.25 31.15 10.76Q30.55 11.28 29.64 11.28L29.64 11.28Q27.58 11.28 27.58 9.29L27.58 9.29Q27.58 6.34 32.59 6.34L32.59 6.34Q35.45 6.34 36.54 7.31Q37.63 8.28 37.63 10.87L37.63 10.87L37.63 15.74Q37.63 16.99 38.33 16.99L38.33 16.99Q39.14 16.99 39.29 14.52L39.29 14.52L39.65 14.54Q39.55 16.66 38.86 17.45Q38.16 18.24 36.58 18.24L36.58 18.24Q33.70 18.24 33.26 16.46L33.26 16.46Q32.95 17.38 32.33 17.81Q31.70 18.24 30.50 18.24L30.50 18.24Q26.95 18.24 26.95 15.34L26.95 15.34Q26.95 13.63 28.31 13.00Q29.66 12.36 32.47 12.36ZM31.51 15.31Q31.51 16.56 31.64 16.92Q31.78 17.28 32.15 17.28Q32.52 17.28 32.84 16.67Q33.17 16.06 33.17 14.98L33.17 14.98L33.17 12.74L33 12.74Q31.51 12.74 31.51 14.93L31.51 14.93L31.51 15.31ZM39.89 7.01L39.89 6.58L45.67 6.58L45.67 8.78Q46.46 6.34 49.16 6.34Q51.86 6.34 52.44 8.93L52.44 8.93Q53.28 6.34 55.97 6.34L55.97 6.34Q59.50 6.34 59.50 10.34L59.50 10.34L59.50 17.57L60.84 17.57L60.84 18L54.19 18L54.19 17.57L55.03 17.57L55.03 9.77Q55.03 7.94 54.72 7.63L54.72 7.63Q54.58 7.49 54.34 7.49L54.34 7.49Q53.64 7.49 53.11 8.42Q52.58 9.36 52.58 10.80L52.58 10.80L52.58 17.57L53.45 17.57L53.45 18L47.28 18L47.28 17.57L48.12 17.57L48.12 9.77Q48.12 7.94 47.81 7.63L47.81 7.63Q47.66 7.49 47.42 7.49L47.42 7.49Q46.75 7.49 46.21 8.51Q45.67 9.53 45.67 10.94L45.67 10.94L45.67 17.57L46.54 17.57L46.54 18L39.89 18L39.89 17.57L41.21 17.57L41.21 7.01L39.89 7.01ZM68.98 7.01L68.09 7.01L68.09 6.58L74.28 6.58L74.28 7.01L73.30 7.01L75.46 15.10L77.59 7.01L75.94 7.01L75.94 6.58L79.18 6.58L79.18 7.01L78.17 7.01L75.29 18L72 18L69.91 10.63L67.66 18L64.44 18L60.89 7.01L59.81 7.01L59.81 6.58L67.08 6.58L67.08 7.01L65.64 7.01L67.85 15.17L69.58 9.55L68.98 7.01ZM84.62 12.36L84.62 12.36L85.32 12.36L85.32 10.51Q85.32 8.23 85.07 7.45Q84.82 6.67 84.10 6.67L84.10 6.67Q83.66 6.67 83.32 6.90Q82.97 7.13 82.97 7.52Q82.97 7.92 83.11 8.33L83.11 8.33L83.71 8.33Q83.90 8.83 83.90 9.54Q83.90 10.25 83.30 10.76Q82.70 11.28 81.79 11.28L81.79 11.28Q79.73 11.28 79.73 9.29L79.73 9.29Q79.73 6.34 84.74 6.34L84.74 6.34Q87.60 6.34 88.69 7.31Q89.78 8.28 89.78 10.87L89.78 10.87L89.78 15.74Q89.78 16.99 90.48 16.99L90.48 16.99Q91.30 16.99 91.44 14.52L91.44 14.52L91.80 14.54Q91.70 16.66 91.01 17.45Q90.31 18.24 88.73 18.24L88.73 18.24Q85.85 18.24 85.42 16.46L85.42 16.46Q85.10 17.38 84.48 17.81Q83.86 18.24 82.66 18.24L82.66 18.24Q79.10 18.24 79.10 15.34L79.10 15.34Q79.10 13.63 80.46 13.00Q81.82 12.36 84.62 12.36ZM83.66 15.31Q83.66 16.56 83.80 16.92Q83.93 17.28 84.30 17.28Q84.67 17.28 85.00 16.67Q85.32 16.06 85.32 14.98L85.32 14.98L85.32 12.74L85.15 12.74Q83.66 12.74 83.66 14.93L83.66 14.93L83.66 15.31ZM91.46 7.01L90.48 7.01L90.48 6.58L97.44 6.58L97.44 7.01L96.14 7.01L98.76 14.98L101.54 7.01L99.94 7.01L99.94 6.58L103.32 6.58L103.32 7.01L102.12 7.01L97.63 19.94Q96.84 22.20 95.86 23.10Q94.87 24 93.46 24Q92.04 24 91.22 23.35Q90.41 22.70 90.41 21.70Q90.41 20.69 90.94 20.16Q91.46 19.63 92.33 19.63L92.33 19.63Q94.32 19.63 94.32 21.29L94.32 21.29Q94.32 21.65 94.18 22.15L94.18 22.15L93.34 22.15Q93.14 22.70 93.29 23.06Q93.43 23.42 93.94 23.42L93.94 23.42Q94.92 23.42 95.69 22.45Q96.46 21.48 97.15 19.49L97.15 19.49L97.68 18L95.57 18L91.46 7.01ZM108.89 14.57L108.89 14.57L108.89 7.01L107.57 7.01L107.57 6.58L108.89 6.58L108.89 3.48L113.35 2.38L113.35 6.58L116.47 6.58L116.47 7.01L113.35 7.01L113.35 15.10Q113.35 16.22 113.58 16.75Q113.81 17.28 114.53 17.28Q115.25 17.28 115.79 16.56Q116.33 15.84 116.50 14.59L116.50 14.59L116.90 14.64Q116.71 16.30 115.85 17.27Q114.98 18.24 112.99 18.24Q111.00 18.24 109.94 17.45Q108.89 16.66 108.89 14.57ZM123.46 18.24Q120.36 18.24 118.81 16.64Q117.26 15.05 117.26 12.20Q117.26 9.36 119.00 7.85Q120.74 6.34 123.43 6.34L123.43 6.34Q128.88 6.34 128.66 11.81L128.66 11.81L121.90 11.81L121.90 12.74Q121.90 15.10 122.50 16.30Q123.10 17.50 124.58 17.50L124.58 17.50Q127.37 17.50 128.23 14.52L128.23 14.52L128.66 14.59Q128.21 16.32 127.02 17.28Q125.83 18.24 123.46 18.24L123.46 18.24ZM121.92 10.15L121.92 11.33L124.39 11.33L124.39 10.15Q124.39 8.21 124.16 7.50Q123.94 6.79 123.25 6.79Q122.57 6.79 122.24 7.55Q121.92 8.30 121.92 10.15L121.92 10.15ZM130.13 18.24L129.84 18.24L129.84 13.94L130.13 13.94Q130.75 16.03 131.81 16.87Q132.86 17.71 134.45 17.71L134.45 17.71Q136.90 17.71 136.90 16.15L136.90 16.15Q136.90 15.48 136.30 15.14L136.30 15.14Q135.36 14.62 133.90 14.33L133.90 14.33Q132.26 13.90 131.16 13.18L131.16 13.18Q129.84 12.31 129.84 10.44Q129.84 8.57 130.99 7.45Q132.14 6.34 134.06 6.34L134.06 6.34Q135.24 6.34 136.49 6.89L136.49 6.89Q136.94 7.08 137.18 7.08Q137.42 7.08 137.59 6.91Q137.76 6.74 138 6.29L138 6.29L138.26 6.29L138.26 9.96L137.98 9.96Q136.75 6.84 134.18 6.84L134.18 6.84Q133.06 6.84 132.50 7.24Q131.95 7.63 131.95 8.23L131.95 8.23Q131.95 8.59 132.12 8.80Q132.29 9 132.38 9.10Q132.48 9.19 132.70 9.30Q132.91 9.41 133.06 9.47Q133.20 9.53 133.50 9.62Q133.80 9.72 133.94 9.74L133.94 9.74Q135.58 10.15 136.30 10.45Q137.02 10.75 137.66 11.18L137.66 11.18Q138.98 12.10 138.98 14.12Q138.98 16.15 137.78 17.20Q136.58 18.24 134.50 18.24L134.50 18.24Q133.01 18.24 131.62 17.54L131.62 17.54Q131.33 17.35 131.16 17.35L131.16 17.35Q130.63 17.35 130.13 18.24L130.13 18.24ZM140.66 14.57L140.66 14.57L140.66 7.01L139.34 7.01L139.34 6.58L140.66 6.58L140.66 3.48L145.13 2.38L145.13 6.58L148.25 6.58L148.25 7.01L145.13 7.01L145.13 15.10Q145.13 16.22 145.36 16.75Q145.58 17.28 146.30 17.28Q147.02 17.28 147.56 16.56Q148.10 15.84 148.27 14.59L148.27 14.59L148.68 14.64Q148.49 16.30 147.62 17.27Q146.76 18.24 144.77 18.24Q142.78 18.24 141.72 17.45Q140.66 16.66 140.66 14.57ZM154.44 14.57L154.44 14.57L154.44 7.01L153.12 7.01L153.12 6.58L154.44 6.58L154.44 3.48L158.90 2.38L158.90 6.58L162.02 6.58L162.02 7.01L158.90 7.01L158.90 15.10Q158.90 16.22 159.13 16.75Q159.36 17.28 160.08 17.28Q160.80 17.28 161.34 16.56Q161.88 15.84 162.05 14.59L162.05 14.59L162.46 14.64Q162.26 16.30 161.40 17.27Q160.54 18.24 158.54 18.24Q156.55 18.24 155.50 17.45Q154.44 16.66 154.44 14.57ZM168.46 12.36L168.46 12.36L169.15 12.36L169.15 10.51Q169.15 8.23 168.90 7.45Q168.65 6.67 167.93 6.67L167.93 6.67Q167.50 6.67 167.15 6.90Q166.80 7.13 166.80 7.52Q166.80 7.92 166.94 8.33L166.94 8.33L167.54 8.33Q167.74 8.83 167.74 9.54Q167.74 10.25 167.14 10.76Q166.54 11.28 165.62 11.28L165.62 11.28Q163.56 11.28 163.56 9.29L163.56 9.29Q163.56 6.34 168.58 6.34L168.58 6.34Q171.43 6.34 172.52 7.31Q173.62 8.28 173.62 10.87L173.62 10.87L173.62 15.74Q173.62 16.99 174.31 16.99L174.31 16.99Q175.13 16.99 175.27 14.52L175.27 14.52L175.63 14.54Q175.54 16.66 174.84 17.45Q174.14 18.24 172.56 18.24L172.56 18.24Q169.68 18.24 169.25 16.46L169.25 16.46Q168.94 17.38 168.31 17.81Q167.69 18.24 166.49 18.24L166.49 18.24Q162.94 18.24 162.94 15.34L162.94 15.34Q162.94 13.63 164.29 13.00Q165.65 12.36 168.46 12.36ZM167.50 15.31Q167.50 16.56 167.63 16.92Q167.76 17.28 168.13 17.28Q168.50 17.28 168.83 16.67Q169.15 16.06 169.15 14.98L169.15 14.98L169.15 12.74L168.98 12.74Q167.50 12.74 167.50 14.93L167.50 14.93L167.50 15.31ZM176.71 18.24L176.42 18.24L176.42 13.94L176.71 13.94Q177.34 16.03 178.39 16.87Q179.45 17.71 181.03 17.71L181.03 17.71Q183.48 17.71 183.48 16.15L183.48 16.15Q183.48 15.48 182.88 15.14L182.88 15.14Q181.94 14.62 180.48 14.33L180.48 14.33Q178.85 13.90 177.74 13.18L177.74 13.18Q176.42 12.31 176.42 10.44Q176.42 8.57 177.58 7.45Q178.73 6.34 180.65 6.34L180.65 6.34Q181.82 6.34 183.07 6.89L183.07 6.89Q183.53 7.08 183.77 7.08Q184.01 7.08 184.18 6.91Q184.34 6.74 184.58 6.29L184.58 6.29L184.85 6.29L184.85 9.96L184.56 9.96Q183.34 6.84 180.77 6.84L180.77 6.84Q179.64 6.84 179.09 7.24Q178.54 7.63 178.54 8.23L178.54 8.23Q178.54 8.59 178.70 8.80Q178.87 9 178.97 9.10Q179.06 9.19 179.28 9.30Q179.50 9.41 179.64 9.47Q179.78 9.53 180.08 9.62Q180.38 9.72 180.53 9.74L180.53 9.74Q182.16 10.15 182.88 10.45Q183.60 10.75 184.25 11.18L184.25 11.18Q185.57 12.10 185.57 14.12Q185.57 16.15 184.37 17.20Q183.17 18.24 181.08 18.24L181.08 18.24Q179.59 18.24 178.20 17.54L178.20 17.54Q177.91 17.35 177.74 17.35L177.74 17.35Q177.22 17.35 176.71 18.24L176.71 18.24ZM200.81 18L194.14 18L194.14 17.57L195.24 17.57L192.53 12L192.07 12.12L192.07 17.57L193.18 17.57L193.18 18L186.29 18L186.29 17.57L187.61 17.57L187.61 0.43L186.19 0.43L186.19 0L192.07 0L192.07 11.64L192.46 11.50L197.86 7.01L195.60 7.01L195.60 6.58L200.33 6.58L200.33 7.01L198.65 7.01L195.79 9.43L199.94 17.57L200.81 17.57L200.81 18Z" transform="translate(0, 48.616)"></path></svg>